<svg width="26" height="26" viewBox="0 0 26 26" fill="none" xmlns="http://www.w3.org/2000/svg">
<path d="M22.75 10.8333C22.75 18.4167 13 24.9167 13 24.9167C13 24.9167 3.25 18.4167 3.25 10.8333C3.25 8.24747 4.27723 5.76752 6.10571 3.93904C7.93419 2.11056 10.4141 1.08333 13 1.08333C15.5859 1.08333 18.0658 2.11056 19.8943 3.93904C21.7228 5.76752 22.75 8.24747 22.75 10.8333Z" stroke="#6487A1" stroke-width="2" stroke-linecap="round" stroke-linejoin="round"/>
<path d="M13 14.0833C14.7949 14.0833 16.25 12.6283 16.25 10.8333C16.25 9.03841 14.7949 7.58333 13 7.58333C11.2051 7.58333 9.75 9.03841 9.75 10.8333C9.75 12.6283 11.2051 14.0833 13 14.0833Z" stroke="#6487A1" stroke-width="2" stroke-linecap="round" stroke-linejoin="round"/>
</svg>
